# This file uses meters as units for non-parametric coordinates.

mtllib Bench.mtl
g default
v -170.297852 0.000000 -44.681149
v -170.297852 0.000000 -34.896233
v -170.297852 106.466148 -44.681149
v -170.297852 106.466148 -34.896233
v -162.845703 106.466148 -44.681149
v -162.845703 106.466148 -34.896233
v -162.844727 0.000000 -44.681149
v -162.844727 0.000000 -34.896233
v 160.524414 0.000000 -44.681160
v 160.524414 0.000000 -34.896240
v 160.524414 106.466148 -44.681160
v 160.524414 106.466148 -34.896240
v 170.297852 106.466148 -44.681160
v 170.297852 106.466148 -34.896240
v 170.297852 0.000000 -44.681160
v 170.297852 0.000000 -34.896240
v -170.297852 135.545227 -44.681152
v -170.297852 135.545227 -34.896229
v -170.297852 106.466118 -34.896229
v -170.297852 106.466118 -44.681152
v 170.298828 106.466148 -44.681145
v 170.298828 135.545227 -44.681145
v 170.298828 106.466148 -34.896233
v 170.298828 135.545242 -34.896233
v -162.845703 67.957283 20.226807
v -170.297852 67.957283 20.226807
v -162.845703 0.000000 20.226807
v -170.297852 0.000000 20.226807
v -162.845703 0.000000 42.580566
v -170.297852 0.000000 42.580566
v -162.845703 52.460526 42.580566
v -170.297852 52.460526 42.580566
v -170.297852 81.685684 44.660160
v -162.844727 81.685684 44.660160
v -162.844727 50.948643 44.660152
v -170.297852 50.948643 44.660152
v -170.297852 106.466118 -34.896252
v -162.844727 106.466118 -34.896252
v -162.844727 135.545212 -34.896252
v -170.297852 135.545212 -34.896252
v 160.524414 62.135502 38.633789
v 160.524414 35.146011 38.633789
v 160.524414 35.146011 42.021729
v 160.524414 62.135502 42.021729
v -162.845703 62.135445 42.021729
v -162.845703 35.145966 42.021729
v -162.845703 35.145966 38.633789
v -162.845703 62.135445 38.633789
v 170.298828 67.957298 20.226807
v 160.524414 67.957298 20.226807
v 170.298828 0.000000 20.226807
v 160.525391 0.000000 20.226807
v 170.298828 0.000000 42.580566
v 160.525391 0.000000 42.580566
v 170.298828 52.460541 42.580566
v 160.524414 52.460541 42.580566
v 160.525391 81.685715 44.660160
v 170.298828 81.685715 44.660160
v 170.298828 50.948669 44.660152
v 160.525391 50.948669 44.660152
v 160.525391 106.466141 -34.896244
v 170.298828 106.466141 -34.896244
v 170.298828 135.545242 -34.896240
v 160.525391 135.545242 -34.896240
v 160.524414 67.311516 -37.204102
v 160.524414 67.311516 42.531082
v 160.524414 71.625580 42.531082
v 160.524414 71.625580 -37.204102
v -162.844727 71.625580 -37.204102
v -162.844727 71.625580 42.531082
v -162.844727 67.311516 42.531082
v -162.844727 67.311516 -37.204102
vt 0.738853 0.001992
vt 0.759145 0.001992
vt 0.759145 0.222784
vt 0.738853 0.222784
vt 0.788476 0.001992
vt 0.808768 0.001992
vt 0.808768 0.222784
vt 0.788476 0.222784
vt 0.841916 0.001992
vt 0.862208 0.001992
vt 0.862208 0.222784
vt 0.841916 0.222784
vt 0.895356 0.001992
vt 0.915648 0.001992
vt 0.915648 0.222784
vt 0.895356 0.222784
vt 0.109022 0.917382
vt 0.109022 0.857077
vt 0.129314 0.857077
vt 0.129314 0.917382
vt 0.156034 0.857077
vt 0.156034 0.917382
vt 0.135742 0.917382
vt 0.135742 0.857077
vt 0.048308 0.857077
vt 0.048308 0.965870
vt 0.001951 0.998008
vt 0.001951 0.857077
vt 0.101939 0.857077
vt 0.101939 0.998008
vt 0.055582 0.965870
vt 0.055582 0.857077
vt 0.812348 0.341826
vt 0.977333 0.226692
vt 0.977333 0.290435
vt 0.812348 0.402130
vt 0.806339 0.851948
vt 0.641354 0.740253
vt 0.641354 0.676510
vt 0.806339 0.791643
vt 0.169488 0.913048
vt 0.162462 0.913048
vt 0.162462 0.857077
vt 0.169488 0.857077
vt 0.182848 0.913048
vt 0.175822 0.913048
vt 0.175822 0.857077
vt 0.182848 0.857077
vt 0.158338 0.712237
vt 0.158338 0.821031
vt 0.111980 0.853168
vt 0.111980 0.712237
vt 0.105972 0.712237
vt 0.105972 0.853168
vt 0.059615 0.821031
vt 0.059615 0.712237
vt 0.417807 0.791643
vt 0.582792 0.676510
vt 0.582792 0.740253
vt 0.417807 0.851948
vt 0.411799 0.851950
vt 0.246813 0.740255
vt 0.246813 0.676512
vt 0.411799 0.791645
vt 0.231858 0.676512
vt 0.240805 0.676512
vt 0.240805 0.841868
vt 0.231858 0.841868
vt 0.225850 0.841868
vt 0.216903 0.841868
vt 0.216903 0.676512
vt 0.225850 0.676512
vt 0.254260 0.855859
vt 0.254260 0.876151
vt 0.238805 0.876151
vt 0.238805 0.855859
vt 0.277165 0.855859
vt 0.277165 0.876151
vt 0.261708 0.876151
vt 0.261708 0.855859
vt 0.304879 0.855859
vt 0.304879 0.876151
vt 0.284611 0.876151
vt 0.284611 0.855859
vt 0.331600 0.855859
vt 0.331600 0.876151
vt 0.311331 0.876151
vt 0.311331 0.855859
vt 0.068942 0.001992
vt 0.089234 0.001992
vt 0.089234 0.708328
vt 0.068942 0.708328
vt 0.162462 0.001992
vt 0.182754 0.001992
vt 0.182754 0.708328
vt 0.162462 0.708328
vt 0.204637 0.821352
vt 0.204637 0.867710
vt 0.189182 0.867710
vt 0.189182 0.821352
vt 0.189182 0.672603
vt 0.189182 0.001992
vt 0.196208 0.001992
vt 0.196208 0.672603
vt 0.265525 0.672603
vt 0.265525 0.001992
vt 0.272551 0.001992
vt 0.272551 0.672603
vt 0.232354 0.845777
vt 0.232354 0.892135
vt 0.212085 0.892135
vt 0.212085 0.845777
vt 0.357137 0.672601
vt 0.357137 0.001992
vt 0.522494 0.001992
vt 0.522494 0.672601
vt 0.544178 0.672601
vt 0.544178 0.001992
vt 0.709534 0.001992
vt 0.709534 0.672601
vt 0.715950 0.001992
vt 0.731406 0.001992
vt 0.731404 0.222784
vt 0.715950 0.222784
vt 0.781029 0.222784
vt 0.765573 0.222784
vt 0.765573 0.001992
vt 0.781027 0.001992
vt 0.815196 0.001992
vt 0.835464 0.001992
vt 0.835464 0.222784
vt 0.815196 0.222784
vt 0.888904 0.222784
vt 0.868636 0.222784
vt 0.868636 0.001992
vt 0.888904 0.001992
vt 0.001951 0.001992
vt 0.062256 0.001992
vt 0.062256 0.708328
vt 0.001951 0.708328
vt 0.095662 0.001992
vt 0.155967 0.001992
vt 0.155967 0.708328
vt 0.095662 0.708328
vt 0.016689 0.853168
vt 0.016689 0.712237
vt 0.032144 0.712237
vt 0.032144 0.853168
vt 0.053606 0.712237
vt 0.053606 0.821031
vt 0.038152 0.821031
vt 0.038152 0.712237
vt 0.053606 0.853168
vt 0.038152 0.853168
vt 0.922076 0.065735
vt 0.922076 0.001992
vt 0.937533 0.001992
vt 0.937533 0.065735
vt 0.922076 0.177430
vt 0.937533 0.177430
vt 0.944979 0.062297
vt 0.944979 0.001992
vt 0.960435 0.001992
vt 0.960435 0.062297
vt 0.960435 0.177430
vt 0.944979 0.177430
vt 0.202542 0.672603
vt 0.202542 0.001992
vt 0.258514 0.001992
vt 0.258514 0.672603
vt 0.278886 0.672603
vt 0.278885 0.001992
vt 0.334857 0.001992
vt 0.334857 0.672603
vt 0.164348 0.853168
vt 0.164346 0.712237
vt 0.184617 0.712237
vt 0.184617 0.853168
vt 0.210895 0.676512
vt 0.210895 0.785306
vt 0.190625 0.785306
vt 0.190627 0.676512
vt 0.210895 0.817443
vt 0.190625 0.817443
vt 0.615077 0.740253
vt 0.615077 0.676510
vt 0.635346 0.676510
vt 0.635346 0.740253
vt 0.615077 0.851948
vt 0.635346 0.851948
vt 0.588801 0.736815
vt 0.588801 0.676510
vt 0.609069 0.676510
vt 0.609069 0.736815
vt 0.609069 0.851948
vt 0.588801 0.851948
vt 0.341868 0.672601
vt 0.341868 0.001992
vt 0.350815 0.001992
vt 0.350815 0.672601
vt 0.528909 0.672601
vt 0.528909 0.001992
vt 0.537856 0.001992
vt 0.537856 0.672601
vn 0.000000 1.000000 0.000000
vn 0.000000 1.000000 0.000000
vn 0.000000 1.000000 0.000000
vn 0.000000 1.000000 0.000000
vn 0.000000 -1.000000 0.000000
vn 0.000000 -1.000000 0.000000
vn 0.000000 -1.000000 0.000000
vn 0.000000 -1.000000 0.000000
vn 0.000000 0.000000 1.000000
vn 0.000000 0.000000 1.000000
vn 0.000000 0.000000 1.000000
vn 0.000000 0.000000 1.000000
vn 0.999988 -0.004857 0.000000
vn 0.999988 -0.004857 0.000000
vn 0.999988 -0.004857 0.000000
vn 0.999988 -0.004857 0.000000
vn 0.000000 0.000000 -1.000000
vn 0.000000 0.000000 -1.000000
vn 0.000000 0.000000 -1.000000
vn 0.000000 0.000000 -1.000000
vn -0.999961 -0.008876 0.000000
vn -0.999961 -0.008876 0.000000
vn -0.999961 -0.008876 0.000000
vn -0.999961 -0.008876 0.000000
vn 0.000000 1.000000 0.000000
vn 0.000000 1.000000 0.000000
vn 0.000000 1.000000 0.000000
vn 0.000000 1.000000 0.000000
vn 0.000000 -1.000000 0.000000
vn 0.000000 -1.000000 0.000000
vn 0.000000 -1.000000 0.000000
vn 0.000000 -1.000000 0.000000
vn 0.000000 0.000000 1.000000
vn 0.000000 0.000000 1.000000
vn 0.000000 0.000000 1.000000
vn 0.000000 0.000000 1.000000
vn 0.999988 -0.004863 0.000000
vn 0.999988 -0.004863 0.000000
vn 0.999988 -0.004863 0.000000
vn 0.999988 -0.004863 0.000000
vn 0.000000 0.000000 -1.000000
vn 0.000000 0.000000 -1.000000
vn 0.000000 0.000000 -1.000000
vn 0.000000 0.000000 -1.000000
vn -0.999961 -0.008880 0.000000
vn -0.999961 -0.008880 0.000000
vn -0.999961 -0.008880 0.000000
vn -0.999961 -0.008880 0.000000
vn -1.000000 0.000000 0.000000
vn -1.000000 0.000000 0.000000
vn -1.000000 0.000000 0.000000
vn -1.000000 0.000000 0.000000
vn 0.000252 0.000000 -1.000000
vn 0.000252 0.000000 -1.000000
vn 0.000252 0.000000 -1.000000
vn 0.000252 0.000000 -1.000000
vn 0.002694 -0.999996 0.000000
vn 0.002694 -0.999996 0.000000
vn 0.002694 -0.999996 0.000000
vn 0.002694 -0.999996 0.000000
vn 0.000251 0.000000 1.000000
vn 0.000251 0.000000 1.000000
vn 0.000251 0.000000 1.000000
vn 0.000251 0.000000 1.000000
vn -0.001051 0.999960 -0.008943
vn -0.001051 0.999959 -0.008943
vn -0.001051 0.999959 -0.008943
vn -0.001051 0.999960 -0.008943
vn 1.000000 0.000000 0.000000
vn 1.000000 0.000000 0.000000
vn 1.000000 0.000000 0.000000
vn 1.000000 0.000000 0.000000
vn 0.000000 -1.000000 0.000000
vn 0.000000 -1.000000 0.000000
vn 0.000000 -1.000000 0.000000
vn 0.000000 -1.000000 0.000000
vn 0.000000 0.766026 0.642809
vn 0.000000 0.766026 0.642809
vn 0.000000 0.766026 0.642809
vn 0.000000 0.766026 0.642809
vn 0.000000 0.003412 -0.999994
vn 0.000000 0.003412 -0.999994
vn 0.000000 0.003412 -0.999994
vn 0.000000 0.003412 -0.999994
vn 0.000000 0.000000 1.000000
vn 0.000000 0.000000 1.000000
vn 0.000000 0.000000 1.000000
vn 0.000000 0.000000 1.000000
vn -0.999483 0.029661 0.012400
vn -0.999483 0.029661 0.012400
vn -0.999483 0.029661 0.012400
vn -0.999483 0.029661 0.012400
vn 0.999508 0.028949 0.012102
vn 0.999508 0.028949 0.012102
vn 0.999508 0.028949 0.012102
vn 0.999508 0.028949 0.012102
vn 0.000000 -0.030227 0.999543
vn 0.000000 -0.030227 0.999543
vn 0.000000 -0.030227 0.999543
vn 0.000000 -0.030227 0.999543
vn 0.000000 0.015490 -0.999880
vn 0.000000 0.015490 -0.999880
vn 0.000000 0.015490 -0.999880
vn 0.000000 0.015490 -0.999880
vn -1.000000 -0.000002 0.000000
vn -1.000000 -0.000002 0.000000
vn -1.000000 -0.000002 0.000000
vn -1.000000 -0.000002 0.000000
vn 0.000000 -0.831078 -0.556157
vn 0.000000 -0.831078 -0.556157
vn 0.000000 -0.831078 -0.556157
vn 0.000000 -0.831078 -0.556157
vn 1.000000 0.000001 0.000000
vn 1.000000 0.000001 0.000000
vn 1.000000 0.000001 0.000000
vn 1.000000 0.000001 0.000000
vn 0.000000 0.838721 0.544562
vn 0.000000 0.838721 0.544562
vn 0.000000 0.838721 0.544562
vn 0.000000 0.838721 0.544562
vn 1.000000 0.000000 -0.000071
vn 1.000000 0.000000 -0.000071
vn 1.000000 0.000000 -0.000071
vn 1.000000 0.000000 -0.000071
vn -1.000000 0.000000 0.000000
vn -1.000000 0.000000 0.000000
vn -1.000000 0.000000 0.000000
vn -1.000000 0.000000 0.000000
vn 0.000000 1.000000 0.000000
vn 0.000000 1.000000 0.000000
vn 0.000000 1.000000 0.000000
vn 0.000000 1.000000 0.000000
vn 0.000000 0.000000 1.000000
vn 0.000000 0.000000 1.000000
vn 0.000000 0.000000 1.000000
vn 0.000000 0.000000 1.000000
vn 0.000000 -1.000000 0.000000
vn 0.000000 -1.000000 0.000000
vn 0.000000 -1.000000 0.000000
vn 0.000000 -1.000000 0.000000
vn -0.000113 0.000000 -1.000000
vn -0.000113 0.000000 -1.000000
vn -0.000113 0.000000 -1.000000
vn -0.000113 0.000000 -1.000000
vn 0.000000 -1.000000 0.000000
vn 0.000000 -1.000000 0.000000
vn 0.000000 -1.000000 0.000000
vn 0.000000 -1.000000 0.000000
vn 0.000000 0.766027 0.642808
vn 0.000000 0.766028 0.642808
vn 0.000000 0.766027 0.642808
vn 0.000000 0.766028 0.642808
vn 0.000000 0.003410 -0.999994
vn 0.000000 0.003410 -0.999994
vn 0.000000 0.003410 -0.999994
vn 0.000000 0.003410 -0.999994
vn 0.000000 0.000000 1.000000
vn 0.000000 0.000000 1.000000
vn 0.000000 0.000000 1.000000
vn 0.000000 0.000000 1.000000
vn -0.999661 0.024018 0.010048
vn -0.999661 0.024018 0.010048
vn -0.999661 0.024018 0.010048
vn -0.999661 0.024018 0.010048
vn 0.999661 0.024023 0.010037
vn 0.999661 0.024023 0.010037
vn 0.999661 0.024023 0.010037
vn 0.999661 0.024023 0.010037
vn 0.000000 -0.030231 0.999543
vn 0.000000 -0.030231 0.999543
vn 0.000000 -0.030231 0.999543
vn 0.000000 -0.030231 0.999543
vn 0.000000 0.015490 -0.999880
vn 0.000000 0.015490 -0.999880
vn 0.000000 0.015490 -0.999880
vn 0.000000 0.015490 -0.999880
vn -1.000000 0.000004 0.000006
vn -1.000000 0.000004 0.000006
vn -1.000000 0.000004 0.000006
vn -1.000000 0.000004 0.000006
vn 0.000000 -0.815234 -0.579132
vn 0.000000 -0.815234 -0.579132
vn 0.000000 -0.815234 -0.579132
vn 0.000000 -0.815234 -0.579132
vn 1.000000 0.000006 -0.000003
vn 1.000000 0.000006 -0.000003
vn 1.000000 0.000006 -0.000003
vn 1.000000 0.000006 -0.000003
vn 0.000000 0.823086 0.567916
vn 0.000000 0.823086 0.567916
vn 0.000000 0.823086 0.567916
vn 0.000000 0.823087 0.567916
vn 1.000000 0.000000 0.000000
vn 1.000000 0.000000 0.000000
vn 1.000000 0.000000 0.000000
vn 1.000000 0.000000 0.000000
vn -1.000000 0.000000 0.000000
vn -1.000000 0.000000 0.000000
vn -1.000000 0.000000 0.000000
vn -1.000000 0.000000 0.000000
vn 0.000000 0.000000 -1.000000
vn 0.000000 0.000000 -1.000000
vn 0.000000 0.000000 -1.000000
vn 0.000000 0.000000 -1.000000
vn 0.000000 1.000000 0.000000
vn 0.000000 1.000000 0.000000
vn 0.000000 1.000000 0.000000
vn 0.000000 1.000000 0.000000
vn 0.000000 0.000000 1.000000
vn 0.000000 0.000000 1.000000
vn 0.000000 0.000000 1.000000
vn 0.000000 0.000000 1.000000
vn -0.000142 -1.000000 0.000000
vn -0.000142 -1.000000 0.000000
vn -0.000142 -1.000000 0.000000
vn -0.000142 -1.000000 0.000000
s off
g Bench
usemtl M1014SG
f 6/73/1 5/74/2 3/75/3 4/76/4
f 7/77/5 8/78/6 2/79/7 1/80/8
f 2/121/9 8/122/10 6/123/11 4/124/12
f 8/1/13 7/2/14 5/3/15 6/4/16
f 7/125/17 1/126/18 3/127/19 5/128/20
f 1/5/21 2/6/22 4/7/23 3/8/24
f 14/81/25 13/82/26 11/83/27 12/84/28
f 15/85/29 16/86/30 10/87/31 9/88/32
f 10/129/33 16/130/34 14/131/35 12/132/36
f 16/9/37 15/10/38 13/11/39 14/12/40
f 15/133/41 9/134/42 11/135/43 13/136/44
f 9/13/45 10/14/46 12/15/47 11/16/48
f 17/17/49 20/18/50 19/19/51 18/20/52
f 22/137/53 21/138/54 20/139/55 17/140/56
f 21/89/57 23/90/58 19/91/59 20/92/60
f 23/141/61 24/142/62 18/143/63 19/144/64
f 24/93/65 22/94/66 17/95/67 18/96/68
f 21/21/69 22/22/70 24/23/71 23/24/72
f 27/97/73 29/98/74 30/99/75 28/100/76
f 31/150/77 25/153/78 26/154/79 32/151/80
f 28/145/81 26/146/82 25/147/83 27/148/84
f 29/149/85 31/150/86 32/151/87 30/152/88
f 30/25/89 32/26/90 26/27/91 28/28/92
f 27/29/93 25/30/94 31/31/95 29/32/96
f 33/155/97 36/156/98 35/157/99 34/158/100
f 37/161/101 40/162/102 39/163/103 38/164/104
f 37/33/105 36/34/106 33/35/107 40/36/108
f 38/164/109 35/165/110 36/166/111 37/161/112
f 39/37/113 34/38/114 35/39/115 38/40/116
f 40/159/117 33/155/118 34/158/119 39/160/120
f 41/41/121 44/42/122 43/43/123 42/44/124
f 45/45/125 48/46/126 47/47/127 46/48/128
f 45/101/129 44/102/130 41/103/131 48/104/132
f 46/167/133 43/168/134 44/169/135 45/170/136
f 47/105/137 42/106/138 43/107/139 46/108/140
f 48/171/141 41/172/142 42/173/143 47/174/144
f 51/109/145 53/110/146 54/111/147 52/112/148
f 55/180/149 49/183/150 50/184/151 56/181/152
f 52/175/153 50/176/154 49/177/155 51/178/156
f 53/179/157 55/180/158 56/181/159 54/182/160
f 54/49/161 56/50/162 50/51/163 52/52/164
f 51/53/165 49/54/166 55/55/167 53/56/168
f 57/185/169 60/186/170 59/187/171 58/188/172
f 61/191/173 64/192/174 63/193/175 62/194/176
f 61/57/177 60/58/178 57/59/179 64/60/180
f 62/194/181 59/195/182 60/196/183 61/191/184
f 63/61/185 58/62/186 59/63/187 62/64/188
f 64/189/189 57/185/190 58/188/191 63/190/192
f 65/65/193 68/66/194 67/67/195 66/68/196
f 69/69/197 72/70/198 71/71/199 70/72/200
f 69/197/201 68/198/202 65/199/203 72/200/204
f 70/113/205 67/114/206 68/115/207 69/116/208
f 71/201/209 66/202/210 67/203/211 70/204/212
f 72/117/213 65/118/214 66/119/215 71/120/216
